HIERARCHY
ROOT Hip
{
	OFFSET -0.073976 0.235684 0.121419
	CHANNELS 6 Xposition Yposition Zposition Xrotation Yrotation Zrotation
	JOINT LowerSpine
	{
		OFFSET -0.000000 0.154443 0.259457
		CHANNELS 6 Xposition Yposition Zposition Xrotation Yrotation Zrotation
		JOINT MiddleSpine
		{
			OFFSET 0.000000 -0.011133 0.236773
			CHANNELS 3 Xrotation Yrotation Zrotation
			JOINT Chest
			{
				OFFSET -0.000000 0.058694 0.292979
				CHANNELS 3 Xrotation Yrotation Zrotation
				JOINT Neck
				{
					OFFSET 0.000000 0.012356 0.660220
					CHANNELS 6 Xposition Yposition Zposition Xrotation Yrotation Zrotation
					JOINT Head
					{
						OFFSET -0.000003 -0.101410 0.372833
						CHANNELS 3 Xrotation Yrotation Zrotation
						End Site
						{
							OFFSET 0.000000 -0.001598 0.053543
						}
					}
				}
				JOINT LClavicle
				{
					OFFSET 0.059990 -0.196462 0.637146
					CHANNELS 6 Xposition Yposition Zposition Xrotation Yrotation Zrotation
					JOINT LShoulder
					{
						OFFSET 0.350464 0.147877 0.091391
						CHANNELS 3 Xrotation Yrotation Zrotation
						JOINT LForearm
						{
							OFFSET 0.827173 0.007170 -0.002927
							CHANNELS 3 Xrotation Yrotation Zrotation
							JOINT LHand
							{
								OFFSET 0.690037 0.004134 0.002005
								CHANNELS 3 Xrotation Yrotation Zrotation
								JOINT LFinger1
								{
									OFFSET 0.267439 -0.074281 0.023390
									CHANNELS 6 Xposition Yposition Zposition Xrotation Yrotation Zrotation
									JOINT LFinger11
									{
										OFFSET 0.100036 -0.017626 -0.024393
										CHANNELS 3 Xrotation Yrotation Zrotation
										JOINT LFinger12
										{
											OFFSET 0.068292 -0.012037 -0.016657
											CHANNELS 3 Xrotation Yrotation Zrotation
											End Site
											{
												OFFSET 0.050720 -0.008226 -0.015140
											}
										}
									}
								}
								JOINT LFinger2
								{
									OFFSET 0.271429 -0.006468 0.027010
									CHANNELS 6 Xposition Yposition Zposition Xrotation Yrotation Zrotation
									JOINT LFinger21
									{
										OFFSET 0.123687 0.000731 0.000345
										CHANNELS 3 Xrotation Yrotation Zrotation
										JOINT LFinger22
										{
											OFFSET 0.068561 0.000417 0.000210
											CHANNELS 3 Xrotation Yrotation Zrotation
											End Site
											{
												OFFSET 0.053434 -0.000070 -0.003773
											}
										}
									}
								}
								JOINT LFinger3
								{
									OFFSET 0.257235 0.060858 0.018028
									CHANNELS 6 Xposition Yposition Zposition Xrotation Yrotation Zrotation
									JOINT LFinger31
									{
										OFFSET 0.112235 0.007028 -0.005680
										CHANNELS 3 Xrotation Yrotation Zrotation
										JOINT LFinger32
										{
											OFFSET 0.063958 0.004018 -0.003217
											CHANNELS 3 Xrotation Yrotation Zrotation
											End Site
											{
												OFFSET 0.053108 0.002511 -0.006529
											}
										}
									}
								}
								JOINT LFinger4
								{
									OFFSET 0.238706 0.105101 -0.018137
									CHANNELS 6 Xposition Yposition Zposition Xrotation Yrotation Zrotation
									JOINT LFinger41
									{
										OFFSET 0.069034 0.019057 -0.014397
										CHANNELS 3 Xrotation Yrotation Zrotation
										JOINT LFinger42
										{
											OFFSET 0.050624 0.013983 -0.010542
											CHANNELS 3 Xrotation Yrotation Zrotation
											End Site
											{
												OFFSET 0.050433 0.011572 -0.013856
											}
										}
									}
								}
								JOINT LFinger0
								{
									OFFSET 0.055325 -0.041941 -0.041874
									CHANNELS 6 Xposition Yposition Zposition Xrotation Yrotation Zrotation
									JOINT LFinger01
									{
										OFFSET 0.103004 -0.077658 -0.033826
										CHANNELS 3 Xrotation Yrotation Zrotation
										JOINT LFinger02
										{
											OFFSET 0.067827 -0.048865 -0.024270
											CHANNELS 3 Xrotation Yrotation Zrotation
											End Site
											{
												OFFSET 0.042516 -0.029114 -0.014636
											}
										}
									}
								}
							}
						}
					}
				}
				JOINT RClavicle
				{
					OFFSET -0.059990 -0.196459 0.637145
					CHANNELS 6 Xposition Yposition Zposition Xrotation Yrotation Zrotation
					JOINT RShoulder
					{
						OFFSET -0.350526 0.147901 0.091405
						CHANNELS 3 Xrotation Yrotation Zrotation
						JOINT RForearm
						{
							OFFSET -0.827173 0.007166 -0.002934
							CHANNELS 3 Xrotation Yrotation Zrotation
							JOINT RHand
							{
								OFFSET -0.690037 0.004132 0.002000
								CHANNELS 3 Xrotation Yrotation Zrotation
								JOINT RFinger1
								{
									OFFSET -0.267439 -0.074282 0.023390
									CHANNELS 6 Xposition Yposition Zposition Xrotation Yrotation Zrotation
									JOINT RFinger11
									{
										OFFSET -0.100036 -0.017626 -0.024394
										CHANNELS 3 Xrotation Yrotation Zrotation
										JOINT RFinger12
										{
											OFFSET -0.068292 -0.012037 -0.016660
											CHANNELS 3 Xrotation Yrotation Zrotation
											End Site
											{
												OFFSET -0.050720 -0.008226 -0.015141
											}
										}
									}
								}
								JOINT RFinger2
								{
									OFFSET -0.271429 -0.006468 0.027010
									CHANNELS 6 Xposition Yposition Zposition Xrotation Yrotation Zrotation
									JOINT RFinger21
									{
										OFFSET -0.123691 0.000731 0.000344
										CHANNELS 3 Xrotation Yrotation Zrotation
										JOINT RFinger22
										{
											OFFSET -0.068561 0.000420 0.000210
											CHANNELS 3 Xrotation Yrotation Zrotation
											End Site
											{
												OFFSET -0.053434 -0.000070 -0.003773
											}
										}
									}
								}
								JOINT RFinger3
								{
									OFFSET -0.257236 0.060857 0.018026
									CHANNELS 6 Xposition Yposition Zposition Xrotation Yrotation Zrotation
									JOINT RFinger31
									{
										OFFSET -0.112235 0.007028 -0.005681
										CHANNELS 3 Xrotation Yrotation Zrotation
										JOINT RFinger32
										{
											OFFSET -0.063958 0.004018 -0.003217
											CHANNELS 3 Xrotation Yrotation Zrotation
											End Site
											{
												OFFSET -0.053108 0.002511 -0.006529
											}
										}
									}
								}
								JOINT RFinger4
								{
									OFFSET -0.238706 0.105100 -0.018139
									CHANNELS 6 Xposition Yposition Zposition Xrotation Yrotation Zrotation
									JOINT RFinger41
									{
										OFFSET -0.069034 0.019057 -0.014395
										CHANNELS 3 Xrotation Yrotation Zrotation
										JOINT RFinger42
										{
											OFFSET -0.050624 0.013983 -0.010540
											CHANNELS 3 Xrotation Yrotation Zrotation
											End Site
											{
												OFFSET -0.050433 0.011572 -0.013857
											}
										}
									}
								}
								JOINT RFinger0
								{
									OFFSET -0.055325 -0.041939 -0.041872
									CHANNELS 6 Xposition Yposition Zposition Xrotation Yrotation Zrotation
									JOINT RFinger01
									{
										OFFSET -0.103003 -0.077661 -0.033833
										CHANNELS 3 Xrotation Yrotation Zrotation
										JOINT RFinger02
										{
											OFFSET -0.067824 -0.048866 -0.024268
											CHANNELS 3 Xrotation Yrotation Zrotation
											End Site
											{
												OFFSET -0.042515 -0.029114 -0.014636
											}
										}
									}
								}
							}
						}
					}
				}
			}
		}
	}
	JOINT RThigh
	{
		OFFSET -0.306771 0.025164 0.117281
		CHANNELS 6 Xposition Yposition Zposition Xrotation Yrotation Zrotation
		JOINT RShin
		{
			OFFSET -0.022210 -0.000000 -1.207231
			CHANNELS 3 Xrotation Yrotation Zrotation
			JOINT RFoot
			{
				OFFSET 0.000000 -0.000000 -1.185430
				CHANNELS 3 Xrotation Yrotation Zrotation
				JOINT RToe
				{
					OFFSET -0.000000 -0.272451 -0.130290
					CHANNELS 3 Xrotation Yrotation Zrotation
					End Site
					{
						OFFSET 0.000000 -0.053567 0.000000
					}
				}
			}
		}
	}
	JOINT LThigh
	{
		OFFSET 0.306765 0.025166 0.117289
		CHANNELS 6 Xposition Yposition Zposition Xrotation Yrotation Zrotation
		JOINT LShin
		{
			OFFSET 0.022212 -0.000001 -1.207240
			CHANNELS 3 Xrotation Yrotation Zrotation
			JOINT LFoot
			{
				OFFSET 0.000000 -0.000000 -1.185430
				CHANNELS 3 Xrotation Yrotation Zrotation
				JOINT LToe
				{
					OFFSET -0.000000 -0.272454 -0.130290
					CHANNELS 3 Xrotation Yrotation Zrotation
					End Site
					{
						OFFSET 0.000000 -0.053567 0.000000
					}
				}
			}
		}
	}
}
MOTION
Frames: 4
Frame Time: 0.041667
-0.070079 0.154619 2.345121 8.757012 0.616226 -0.000024 0.000000 0.154442 0.259456 80.412445 0.476428 0.600738 17.910151 0.525275 1.362150 -7.659601 2.494168 4.174254 0.000000 0.012357 0.660219 36.351486 -4.086733 2.927245 36.827912 -6.529231 2.706287 0.059990 -0.196462 0.637146 3.443375 15.377876 -17.959176 50.096408 26.918752 -55.088597 -31.744834 -27.367499 -93.393999 0.005029 -0.125011 -0.733211 0.267438 -0.074281 0.023389 0.000006 0.000027 -0.000018 0.000007 -0.000013 0.000019 0.000005 0.000003 0.000001 0.271429 -0.006467 0.027011 -0.000004 0.000004 -0.000014 -0.000002 0.000001 0.000008 0.000016 0.000002 0.000000 0.257236 0.060858 0.018028 0.000009 0.000015 -0.000010 -0.000002 0.000013 0.000004 0.000006 0.000000 0.000006 0.238706 0.105101 -0.018137 0.000004 0.000002 -0.000009 -0.000004 -0.000006 -0.000006 0.000001 0.000013 0.000014 0.055325 -0.041941 -0.041873 0.000021 -0.000003 -0.000040 0.000025 -0.000016 0.000037 -0.000002 -0.000024 0.000032 -0.059990 -0.196459 0.637145 1.850533 -12.067088 20.472123 46.689278 -37.893589 57.427227 -56.620701 48.282901 83.599480 0.044154 1.329655 0.635981 -0.267439 -0.074282 0.023391 -0.000007 0.000005 -0.000013 0.000006 0.000021 -0.000012 0.000009 0.000033 -0.000021 -0.271429 -0.006468 0.027011 -0.000001 0.000003 -0.000013 0.000012 -0.000010 -0.000021 0.000004 -0.000016 -0.000011 -0.257236 0.060857 0.018026 0.000004 0.000005 -0.000014 -0.000000 -0.000001 0.000005 0.000011 -0.000014 -0.000008 -0.238704 0.105100 -0.018140 0.000006 0.000023 -0.000003 -0.000006 0.000010 0.000004 0.000008 0.000003 0.000018 -0.055324 -0.041938 -0.041871 -0.000015 0.000003 -0.000017 0.000010 0.000019 -0.000009 0.000002 -0.000010 0.000025 -0.306280 0.031133 0.143990 -18.001903 0.505429 0.585836 10.916447 0.000013 0.000003 -2.829315 -6.642741 8.662673 -0.000008 0.000018 0.000001 0.308702 0.043623 0.210200 -13.400841 1.870595 0.335280 5.863476 -0.000040 -0.000002 0.233006 0.135292 -0.282411 0.000020 -0.000009 0.000003 
-0.070079 0.154619 2.345121 8.757012 0.616226 -0.000024 0.000000 0.154442 0.259456 80.128685 0.471063 0.598784 17.860764 0.519898 1.358497 -7.659600 2.494168 4.174255 0.000000 0.012357 0.660219 36.208691 -4.082138 2.913696 36.732184 -6.528426 2.704411 0.059990 -0.196462 0.637146 3.443373 15.377876 -17.959176 49.892018 26.641990 -55.168592 -31.489211 -27.406187 -92.703378 0.003450 -0.095274 -0.677256 0.267438 -0.074281 0.023389 0.000005 0.000023 -0.000018 0.000004 -0.000014 0.000020 0.000005 0.000009 -0.000001 0.271429 -0.006467 0.027011 -0.000003 0.000001 -0.000013 -0.000004 0.000001 0.000010 0.000020 -0.000001 0.000003 0.257236 0.060858 0.018028 0.000008 0.000012 -0.000010 0.000003 0.000011 0.000004 0.000008 0.000001 0.000005 0.238706 0.105101 -0.018137 0.000006 -0.000001 -0.000008 -0.000005 -0.000001 -0.000001 -0.000000 0.000017 0.000010 0.055325 -0.041941 -0.041873 0.000017 -0.000004 -0.000036 0.000027 -0.000020 0.000036 0.000001 -0.000026 0.000033 -0.059990 -0.196459 0.637145 1.850545 -12.067077 20.472148 46.718873 -37.866808 57.490747 -55.340279 48.131967 82.002370 0.041629 1.241701 0.554019 -0.267439 -0.074282 0.023391 -0.000012 0.000010 -0.000015 0.000002 0.000020 -0.000011 0.000007 0.000031 -0.000026 -0.271429 -0.006468 0.027010 -0.000004 0.000004 -0.000013 0.000010 -0.000010 -0.000022 0.000003 -0.000016 -0.000012 -0.257235 0.060858 0.018026 -0.000002 0.000007 -0.000014 0.000002 0.000000 0.000007 0.000007 -0.000014 -0.000009 -0.238704 0.105100 -0.018139 0.000006 0.000023 -0.000003 -0.000008 0.000012 0.000005 0.000000 0.000007 0.000020 -0.055324 -0.041938 -0.041872 -0.000018 0.000004 -0.000017 0.000007 0.000022 -0.000009 0.000003 -0.000015 0.000020 -0.306280 0.031133 0.143990 -18.001903 0.505429 0.585836 10.916447 0.000013 0.000003 -2.829315 -6.642741 8.662673 -0.000008 0.000018 0.000001 0.308702 0.043623 0.210200 -13.400841 1.870595 0.335280 5.863476 -0.000040 -0.000002 0.233006 0.135292 -0.282411 0.000020 -0.000009 0.000003 
-0.070079 0.154619 2.345121 8.757012 0.616226 -0.000024 0.000000 0.154442 0.259456 79.832556 0.465091 0.597045 17.810864 0.514509 1.354777 -7.659600 2.494168 4.174255 0.000000 0.012357 0.660219 36.039520 -4.076656 2.897660 36.618563 -6.521589 2.699650 0.059990 -0.196462 0.637145 3.443373 15.377881 -17.959178 49.695357 26.375940 -55.246398 -31.253713 -27.434199 -92.064523 0.001854 -0.065545 -0.621291 0.267438 -0.074281 0.023389 0.000000 0.000023 -0.000018 0.000009 -0.000014 0.000022 0.000004 0.000008 -0.000001 0.271430 -0.006468 0.027011 -0.000003 0.000002 -0.000013 -0.000004 0.000005 0.000006 0.000020 -0.000003 0.000007 0.257237 0.060858 0.018028 0.000003 0.000012 -0.000006 0.000000 0.000014 0.000007 0.000001 0.000003 0.000005 0.238707 0.105101 -0.018137 0.000001 0.000000 -0.000003 -0.000006 -0.000002 -0.000003 0.000002 0.000016 0.000011 0.055325 -0.041941 -0.041873 0.000020 -0.000003 -0.000033 0.000028 -0.000019 0.000036 -0.000006 -0.000025 0.000035 -0.059990 -0.196459 0.637145 1.850555 -12.067064 20.472176 46.744165 -37.844323 57.544084 -54.087725 47.952907 80.451275 0.039097 1.158327 0.484138 -0.267439 -0.074282 0.023391 -0.000010 0.000006 -0.000015 0.000004 0.000023 -0.000013 0.000012 0.000035 -0.000026 -0.271429 -0.006468 0.027010 -0.000005 0.000004 -0.000014 0.000013 -0.000010 -0.000021 0.000005 -0.000017 -0.000013 -0.257236 0.060858 0.018026 -0.000003 0.000007 -0.000014 0.000001 -0.000001 0.000007 0.000010 -0.000014 -0.000009 -0.238704 0.105100 -0.018139 0.000002 0.000022 -0.000005 -0.000003 0.000011 0.000004 0.000005 0.000005 0.000017 -0.055324 -0.041938 -0.041871 -0.000018 0.000009 -0.000015 0.000009 0.000018 -0.000008 0.000006 -0.000009 0.000020 -0.306280 0.031133 0.143990 -18.001903 0.505429 0.585836 10.916447 0.000013 0.000003 -2.829315 -6.642741 8.662673 -0.000008 0.000018 0.000001 0.308702 0.043623 0.210200 -13.400841 1.870595 0.335280 5.863476 -0.000040 -0.000002 0.233006 0.135292 -0.282411 0.000020 -0.000009 0.000003 
-0.070079 0.154619 2.345121 8.757012 0.616226 -0.000024 0.000000 0.154442 0.259456 79.523974 0.458287 0.595599 17.760457 0.509110 1.351009 -7.659600 2.494169 4.174256 -0.000000 0.012356 0.660219 35.843904 -4.070251 2.879132 36.487202 -6.513845 2.693587 0.059990 -0.196462 0.637146 3.443375 15.377877 -17.959178 49.506840 26.121034 -55.321810 -31.039057 -27.452125 -91.478691 0.000214 -0.035814 -0.565327 0.267439 -0.074281 0.023389 0.000009 0.000025 -0.000020 0.000009 -0.000017 0.000026 0.000006 0.000004 0.000001 0.271429 -0.006468 0.027011 -0.000000 0.000004 -0.000014 -0.000008 0.000000 0.000008 0.000015 -0.000006 0.000005 0.257236 0.060858 0.018028 0.000012 0.000011 -0.000016 0.000002 0.000014 0.000005 0.000002 0.000003 0.000005 0.238707 0.105101 -0.018137 0.000004 0.000001 -0.000007 -0.000008 -0.000004 -0.000000 0.000001 0.000019 0.000007 0.055325 -0.041942 -0.041873 0.000023 0.000000 -0.000041 0.000024 -0.000015 0.000036 -0.000003 -0.000029 0.000033 -0.059990 -0.196459 0.637145 1.850574 -12.067048 20.472196 46.764891 -37.826141 57.587128 -52.873987 47.748613 78.960013 0.036605 1.079977 0.426867 -0.267439 -0.074282 0.023390 -0.000006 0.000008 -0.000013 0.000005 0.000023 -0.000012 0.000008 0.000031 -0.000027 -0.271429 -0.006468 0.027010 0.000001 0.000004 -0.000015 0.000013 -0.000009 -0.000022 0.000000 -0.000016 -0.000013 -0.257236 0.060857 0.018026 0.000005 0.000005 -0.000013 0.000001 -0.000000 0.000007 0.000014 -0.000015 -0.000010 -0.238704 0.105100 -0.018139 0.000011 0.000022 -0.000005 -0.000006 0.000011 0.000004 0.000005 0.000006 0.000019 -0.055324 -0.041938 -0.041871 -0.000016 0.000005 -0.000015 0.000005 0.000016 -0.000010 0.000006 -0.000013 0.000024 -0.306280 0.031133 0.143990 -18.001903 0.505429 0.585836 10.916447 0.000013 0.000003 -2.829315 -6.642741 8.662673 -0.000008 0.000018 0.000001 0.308702 0.043623 0.210200 -13.400841 1.870595 0.335280 5.863476 -0.000040 -0.000002 0.233006 0.135292 -0.282411 0.000020 -0.000009 0.000003 
